%
M48
M72
T01C0.03543
T02C0.04000
T03C0.04331
%
T01
X110894Y41800
X122706Y41800
X118050Y56800
X118050Y65550
X171800Y96800
X181800Y96800
X191800Y96800
X201800Y96800
X211800Y96800
X221800Y96800
X163050Y144300
X155550Y144300
X159300Y151800
X123050Y181800
X106800Y186800
X126800Y201800
X111800Y206800
X146800Y201800
X159300Y209300
X154300Y216800
X164300Y216800
X186800Y196800
X201800Y201800
X209300Y186800
X196800Y181800
T02
X96800Y64300
X96800Y74300
X96800Y84300
X96800Y94300
X65942Y152658
X58871Y159729
X51800Y166800
X42229Y176371
X252658Y152658
X259729Y159729
X266800Y166800
X273871Y176371
T03
X214300Y170550
X214300Y160550
X204300Y170550
X194300Y170550
X184300Y170550
X174300Y170550
X164300Y170550
X154300Y170550
X144300Y170550
X134300Y170550
X124300Y170550
X114300Y170550
X114300Y160550
X104300Y160550
X104300Y170550
X104300Y150550
X114300Y150550
X104300Y130550
X104300Y120550
X104300Y110550
X114300Y110550
X124300Y110550
X134300Y110550
X144300Y110550
X154300Y110550
X164300Y110550
X174300Y110550
X184300Y110550
X194300Y110550
X204300Y110550
X214300Y110550
X214300Y120550
X214300Y130550
X214300Y140550
X214300Y150550
M30
