G75*
%MOIN*%
%OFA0B0*%
%FSLAX25Y25*%
%IPPOS*%
%LPD*%
%AMOC8*
5,1,8,0,0,1.08239X$1,22.5*
%
%ADD10C,0.00000*%
%ADD11C,0.00800*%
%ADD12C,0.00600*%
%ADD13C,0.00100*%
%ADD14R,0.00500X0.03000*%
%ADD15C,0.00500*%
%ADD16C,0.00400*%
%ADD17R,0.01800X0.03000*%
D10*
X0086800Y0031800D02*
X0086800Y0144729D01*
X0086798Y0144869D01*
X0086792Y0145009D01*
X0086782Y0145149D01*
X0086769Y0145289D01*
X0086751Y0145428D01*
X0086729Y0145567D01*
X0086704Y0145704D01*
X0086675Y0145842D01*
X0086642Y0145978D01*
X0086605Y0146113D01*
X0086564Y0146247D01*
X0086519Y0146380D01*
X0086471Y0146512D01*
X0086419Y0146642D01*
X0086364Y0146771D01*
X0086305Y0146898D01*
X0086242Y0147024D01*
X0086176Y0147148D01*
X0086107Y0147269D01*
X0086034Y0147389D01*
X0085957Y0147507D01*
X0085878Y0147622D01*
X0085795Y0147736D01*
X0085709Y0147846D01*
X0085620Y0147955D01*
X0085528Y0148061D01*
X0085433Y0148164D01*
X0085336Y0148265D01*
X0085235Y0148362D01*
X0085132Y0148457D01*
X0085026Y0148549D01*
X0084917Y0148638D01*
X0084807Y0148724D01*
X0084693Y0148807D01*
X0084578Y0148886D01*
X0084460Y0148963D01*
X0084340Y0149036D01*
X0084219Y0149105D01*
X0084095Y0149171D01*
X0083969Y0149234D01*
X0083842Y0149293D01*
X0083713Y0149348D01*
X0083583Y0149400D01*
X0083451Y0149448D01*
X0083318Y0149493D01*
X0083184Y0149534D01*
X0083049Y0149571D01*
X0082913Y0149604D01*
X0082775Y0149633D01*
X0082638Y0149658D01*
X0082499Y0149680D01*
X0082360Y0149698D01*
X0082220Y0149711D01*
X0082080Y0149721D01*
X0081940Y0149727D01*
X0081800Y0149729D01*
X0081660Y0149727D01*
X0081520Y0149721D01*
X0081380Y0149711D01*
X0081240Y0149698D01*
X0081101Y0149680D01*
X0080962Y0149658D01*
X0080825Y0149633D01*
X0080687Y0149604D01*
X0080551Y0149571D01*
X0080416Y0149534D01*
X0080282Y0149493D01*
X0080149Y0149448D01*
X0080017Y0149400D01*
X0079887Y0149348D01*
X0079758Y0149293D01*
X0079631Y0149234D01*
X0079505Y0149171D01*
X0079381Y0149105D01*
X0079260Y0149036D01*
X0079140Y0148963D01*
X0079022Y0148886D01*
X0078907Y0148807D01*
X0078793Y0148724D01*
X0078683Y0148638D01*
X0078574Y0148549D01*
X0078468Y0148457D01*
X0078365Y0148362D01*
X0078264Y0148265D01*
X0078264Y0148264D02*
X0070336Y0140336D01*
X0070336Y0140335D02*
X0070235Y0140238D01*
X0070132Y0140143D01*
X0070026Y0140051D01*
X0069917Y0139962D01*
X0069807Y0139876D01*
X0069693Y0139793D01*
X0069578Y0139714D01*
X0069460Y0139637D01*
X0069340Y0139564D01*
X0069219Y0139495D01*
X0069095Y0139429D01*
X0068969Y0139366D01*
X0068842Y0139307D01*
X0068713Y0139252D01*
X0068583Y0139200D01*
X0068451Y0139152D01*
X0068318Y0139107D01*
X0068184Y0139066D01*
X0068049Y0139029D01*
X0067913Y0138996D01*
X0067775Y0138967D01*
X0067638Y0138942D01*
X0067499Y0138920D01*
X0067360Y0138902D01*
X0067220Y0138889D01*
X0067080Y0138879D01*
X0066940Y0138873D01*
X0066800Y0138871D01*
X0066660Y0138873D01*
X0066520Y0138879D01*
X0066380Y0138889D01*
X0066240Y0138902D01*
X0066101Y0138920D01*
X0065962Y0138942D01*
X0065825Y0138967D01*
X0065687Y0138996D01*
X0065551Y0139029D01*
X0065416Y0139066D01*
X0065282Y0139107D01*
X0065149Y0139152D01*
X0065017Y0139200D01*
X0064887Y0139252D01*
X0064758Y0139307D01*
X0064631Y0139366D01*
X0064505Y0139429D01*
X0064381Y0139495D01*
X0064260Y0139564D01*
X0064140Y0139637D01*
X0064022Y0139714D01*
X0063907Y0139793D01*
X0063793Y0139876D01*
X0063683Y0139962D01*
X0063574Y0140051D01*
X0063468Y0140143D01*
X0063365Y0140238D01*
X0063264Y0140335D01*
X0063264Y0140336D02*
X0030493Y0173107D01*
X0030492Y0173107D02*
X0030395Y0173207D01*
X0030301Y0173310D01*
X0030210Y0173415D01*
X0030122Y0173522D01*
X0030036Y0173632D01*
X0029954Y0173744D01*
X0029875Y0173859D01*
X0029799Y0173975D01*
X0029726Y0174094D01*
X0029657Y0174215D01*
X0029591Y0174337D01*
X0029529Y0174462D01*
X0029470Y0174588D01*
X0029414Y0174715D01*
X0029363Y0174845D01*
X0029314Y0174975D01*
X0029270Y0175107D01*
X0029229Y0175240D01*
X0029192Y0175374D01*
X0029158Y0175509D01*
X0029129Y0175645D01*
X0029103Y0175782D01*
X0029081Y0175919D01*
X0029062Y0176057D01*
X0029048Y0176196D01*
X0029038Y0176334D01*
X0029031Y0176473D01*
X0029028Y0176612D01*
X0029029Y0176752D01*
X0029034Y0176891D01*
X0029043Y0177030D01*
X0029056Y0177168D01*
X0029072Y0177306D01*
X0029093Y0177444D01*
X0029117Y0177581D01*
X0029145Y0177717D01*
X0029177Y0177853D01*
X0029212Y0177987D01*
X0029251Y0178121D01*
X0029294Y0178253D01*
X0029341Y0178384D01*
X0029391Y0178514D01*
X0029445Y0178642D01*
X0029503Y0178769D01*
X0029563Y0178894D01*
X0029628Y0179018D01*
X0029696Y0179139D01*
X0029767Y0179259D01*
X0029841Y0179376D01*
X0029919Y0179492D01*
X0030000Y0179605D01*
X0030084Y0179716D01*
X0030171Y0179824D01*
X0030261Y0179931D01*
X0030354Y0180034D01*
X0030450Y0180135D01*
X0030548Y0180233D01*
X0030649Y0180329D01*
X0030650Y0180329D02*
X0085366Y0230486D01*
X0088745Y0231800D02*
X0229855Y0231800D01*
X0233234Y0230486D02*
X0287950Y0180329D01*
X0287951Y0180329D02*
X0288052Y0180233D01*
X0288150Y0180135D01*
X0288246Y0180034D01*
X0288339Y0179931D01*
X0288429Y0179824D01*
X0288516Y0179716D01*
X0288600Y0179605D01*
X0288681Y0179492D01*
X0288759Y0179376D01*
X0288833Y0179259D01*
X0288904Y0179139D01*
X0288972Y0179018D01*
X0289037Y0178894D01*
X0289097Y0178769D01*
X0289155Y0178642D01*
X0289209Y0178514D01*
X0289259Y0178384D01*
X0289306Y0178253D01*
X0289349Y0178121D01*
X0289388Y0177987D01*
X0289423Y0177853D01*
X0289455Y0177717D01*
X0289483Y0177581D01*
X0289507Y0177444D01*
X0289528Y0177306D01*
X0289544Y0177168D01*
X0289557Y0177030D01*
X0289566Y0176891D01*
X0289571Y0176752D01*
X0289572Y0176612D01*
X0289569Y0176473D01*
X0289562Y0176334D01*
X0289552Y0176196D01*
X0289538Y0176057D01*
X0289519Y0175919D01*
X0289497Y0175782D01*
X0289471Y0175645D01*
X0289442Y0175509D01*
X0289408Y0175374D01*
X0289371Y0175240D01*
X0289330Y0175107D01*
X0289286Y0174975D01*
X0289237Y0174845D01*
X0289186Y0174715D01*
X0289130Y0174588D01*
X0289071Y0174462D01*
X0289009Y0174337D01*
X0288943Y0174215D01*
X0288874Y0174094D01*
X0288801Y0173975D01*
X0288725Y0173859D01*
X0288646Y0173744D01*
X0288564Y0173632D01*
X0288478Y0173522D01*
X0288390Y0173415D01*
X0288299Y0173310D01*
X0288205Y0173207D01*
X0288108Y0173107D01*
X0288107Y0173107D02*
X0255336Y0140336D01*
X0255336Y0140335D02*
X0255235Y0140238D01*
X0255132Y0140143D01*
X0255026Y0140051D01*
X0254917Y0139962D01*
X0254807Y0139876D01*
X0254693Y0139793D01*
X0254578Y0139714D01*
X0254460Y0139637D01*
X0254340Y0139564D01*
X0254219Y0139495D01*
X0254095Y0139429D01*
X0253969Y0139366D01*
X0253842Y0139307D01*
X0253713Y0139252D01*
X0253583Y0139200D01*
X0253451Y0139152D01*
X0253318Y0139107D01*
X0253184Y0139066D01*
X0253049Y0139029D01*
X0252913Y0138996D01*
X0252775Y0138967D01*
X0252638Y0138942D01*
X0252499Y0138920D01*
X0252360Y0138902D01*
X0252220Y0138889D01*
X0252080Y0138879D01*
X0251940Y0138873D01*
X0251800Y0138871D01*
X0251660Y0138873D01*
X0251520Y0138879D01*
X0251380Y0138889D01*
X0251240Y0138902D01*
X0251101Y0138920D01*
X0250962Y0138942D01*
X0250825Y0138967D01*
X0250687Y0138996D01*
X0250551Y0139029D01*
X0250416Y0139066D01*
X0250282Y0139107D01*
X0250149Y0139152D01*
X0250017Y0139200D01*
X0249887Y0139252D01*
X0249758Y0139307D01*
X0249631Y0139366D01*
X0249505Y0139429D01*
X0249381Y0139495D01*
X0249260Y0139564D01*
X0249140Y0139637D01*
X0249022Y0139714D01*
X0248907Y0139793D01*
X0248793Y0139876D01*
X0248683Y0139962D01*
X0248574Y0140051D01*
X0248468Y0140143D01*
X0248365Y0140238D01*
X0248264Y0140335D01*
X0248264Y0140336D02*
X0240336Y0148264D01*
X0240336Y0148265D02*
X0240235Y0148362D01*
X0240132Y0148457D01*
X0240026Y0148549D01*
X0239917Y0148638D01*
X0239807Y0148724D01*
X0239693Y0148807D01*
X0239578Y0148886D01*
X0239460Y0148963D01*
X0239340Y0149036D01*
X0239219Y0149105D01*
X0239095Y0149171D01*
X0238969Y0149234D01*
X0238842Y0149293D01*
X0238713Y0149348D01*
X0238583Y0149400D01*
X0238451Y0149448D01*
X0238318Y0149493D01*
X0238184Y0149534D01*
X0238049Y0149571D01*
X0237913Y0149604D01*
X0237775Y0149633D01*
X0237638Y0149658D01*
X0237499Y0149680D01*
X0237360Y0149698D01*
X0237220Y0149711D01*
X0237080Y0149721D01*
X0236940Y0149727D01*
X0236800Y0149729D01*
X0236660Y0149727D01*
X0236520Y0149721D01*
X0236380Y0149711D01*
X0236240Y0149698D01*
X0236101Y0149680D01*
X0235962Y0149658D01*
X0235825Y0149633D01*
X0235687Y0149604D01*
X0235551Y0149571D01*
X0235416Y0149534D01*
X0235282Y0149493D01*
X0235149Y0149448D01*
X0235017Y0149400D01*
X0234887Y0149348D01*
X0234758Y0149293D01*
X0234631Y0149234D01*
X0234505Y0149171D01*
X0234381Y0149105D01*
X0234260Y0149036D01*
X0234140Y0148963D01*
X0234022Y0148886D01*
X0233907Y0148807D01*
X0233793Y0148724D01*
X0233683Y0148638D01*
X0233574Y0148549D01*
X0233468Y0148457D01*
X0233365Y0148362D01*
X0233264Y0148265D01*
X0233167Y0148164D01*
X0233072Y0148061D01*
X0232980Y0147955D01*
X0232891Y0147846D01*
X0232805Y0147736D01*
X0232722Y0147622D01*
X0232643Y0147507D01*
X0232566Y0147389D01*
X0232493Y0147269D01*
X0232424Y0147148D01*
X0232358Y0147024D01*
X0232295Y0146898D01*
X0232236Y0146771D01*
X0232181Y0146642D01*
X0232129Y0146512D01*
X0232081Y0146380D01*
X0232036Y0146247D01*
X0231995Y0146113D01*
X0231958Y0145978D01*
X0231925Y0145842D01*
X0231896Y0145704D01*
X0231871Y0145567D01*
X0231849Y0145428D01*
X0231831Y0145289D01*
X0231818Y0145149D01*
X0231808Y0145009D01*
X0231802Y0144869D01*
X0231800Y0144729D01*
X0231800Y0031800D01*
X0231798Y0031660D01*
X0231792Y0031520D01*
X0231782Y0031380D01*
X0231769Y0031240D01*
X0231751Y0031101D01*
X0231729Y0030962D01*
X0231704Y0030825D01*
X0231675Y0030687D01*
X0231642Y0030551D01*
X0231605Y0030416D01*
X0231564Y0030282D01*
X0231519Y0030149D01*
X0231471Y0030017D01*
X0231419Y0029887D01*
X0231364Y0029758D01*
X0231305Y0029631D01*
X0231242Y0029505D01*
X0231176Y0029381D01*
X0231107Y0029260D01*
X0231034Y0029140D01*
X0230957Y0029022D01*
X0230878Y0028907D01*
X0230795Y0028793D01*
X0230709Y0028683D01*
X0230620Y0028574D01*
X0230528Y0028468D01*
X0230433Y0028365D01*
X0230336Y0028264D01*
X0230235Y0028167D01*
X0230132Y0028072D01*
X0230026Y0027980D01*
X0229917Y0027891D01*
X0229807Y0027805D01*
X0229693Y0027722D01*
X0229578Y0027643D01*
X0229460Y0027566D01*
X0229340Y0027493D01*
X0229219Y0027424D01*
X0229095Y0027358D01*
X0228969Y0027295D01*
X0228842Y0027236D01*
X0228713Y0027181D01*
X0228583Y0027129D01*
X0228451Y0027081D01*
X0228318Y0027036D01*
X0228184Y0026995D01*
X0228049Y0026958D01*
X0227913Y0026925D01*
X0227775Y0026896D01*
X0227638Y0026871D01*
X0227499Y0026849D01*
X0227360Y0026831D01*
X0227220Y0026818D01*
X0227080Y0026808D01*
X0226940Y0026802D01*
X0226800Y0026800D01*
X0091800Y0026800D01*
X0091660Y0026802D01*
X0091520Y0026808D01*
X0091380Y0026818D01*
X0091240Y0026831D01*
X0091101Y0026849D01*
X0090962Y0026871D01*
X0090825Y0026896D01*
X0090687Y0026925D01*
X0090551Y0026958D01*
X0090416Y0026995D01*
X0090282Y0027036D01*
X0090149Y0027081D01*
X0090017Y0027129D01*
X0089887Y0027181D01*
X0089758Y0027236D01*
X0089631Y0027295D01*
X0089505Y0027358D01*
X0089381Y0027424D01*
X0089260Y0027493D01*
X0089140Y0027566D01*
X0089022Y0027643D01*
X0088907Y0027722D01*
X0088793Y0027805D01*
X0088683Y0027891D01*
X0088574Y0027980D01*
X0088468Y0028072D01*
X0088365Y0028167D01*
X0088264Y0028264D01*
X0088167Y0028365D01*
X0088072Y0028468D01*
X0087980Y0028574D01*
X0087891Y0028683D01*
X0087805Y0028793D01*
X0087722Y0028907D01*
X0087643Y0029022D01*
X0087566Y0029140D01*
X0087493Y0029260D01*
X0087424Y0029381D01*
X0087358Y0029505D01*
X0087295Y0029631D01*
X0087236Y0029758D01*
X0087181Y0029887D01*
X0087129Y0030017D01*
X0087081Y0030149D01*
X0087036Y0030282D01*
X0086995Y0030416D01*
X0086958Y0030551D01*
X0086925Y0030687D01*
X0086896Y0030825D01*
X0086871Y0030962D01*
X0086849Y0031101D01*
X0086831Y0031240D01*
X0086818Y0031380D01*
X0086808Y0031520D01*
X0086802Y0031660D01*
X0086800Y0031800D01*
X0109122Y0041800D02*
X0109124Y0041884D01*
X0109130Y0041967D01*
X0109140Y0042050D01*
X0109154Y0042133D01*
X0109171Y0042215D01*
X0109193Y0042296D01*
X0109218Y0042375D01*
X0109247Y0042454D01*
X0109280Y0042531D01*
X0109316Y0042606D01*
X0109356Y0042680D01*
X0109399Y0042752D01*
X0109446Y0042821D01*
X0109496Y0042888D01*
X0109549Y0042953D01*
X0109605Y0043015D01*
X0109663Y0043075D01*
X0109725Y0043132D01*
X0109789Y0043185D01*
X0109856Y0043236D01*
X0109925Y0043283D01*
X0109996Y0043328D01*
X0110069Y0043368D01*
X0110144Y0043405D01*
X0110221Y0043439D01*
X0110299Y0043469D01*
X0110378Y0043495D01*
X0110459Y0043518D01*
X0110541Y0043536D01*
X0110623Y0043551D01*
X0110706Y0043562D01*
X0110789Y0043569D01*
X0110873Y0043572D01*
X0110957Y0043571D01*
X0111040Y0043566D01*
X0111124Y0043557D01*
X0111206Y0043544D01*
X0111288Y0043528D01*
X0111369Y0043507D01*
X0111450Y0043483D01*
X0111528Y0043455D01*
X0111606Y0043423D01*
X0111682Y0043387D01*
X0111756Y0043348D01*
X0111828Y0043306D01*
X0111898Y0043260D01*
X0111966Y0043211D01*
X0112031Y0043159D01*
X0112094Y0043104D01*
X0112154Y0043046D01*
X0112212Y0042985D01*
X0112266Y0042921D01*
X0112318Y0042855D01*
X0112366Y0042787D01*
X0112411Y0042716D01*
X0112452Y0042643D01*
X0112491Y0042569D01*
X0112525Y0042493D01*
X0112556Y0042415D01*
X0112583Y0042336D01*
X0112607Y0042255D01*
X0112626Y0042174D01*
X0112642Y0042092D01*
X0112654Y0042009D01*
X0112662Y0041925D01*
X0112666Y0041842D01*
X0112666Y0041758D01*
X0112662Y0041675D01*
X0112654Y0041591D01*
X0112642Y0041508D01*
X0112626Y0041426D01*
X0112607Y0041345D01*
X0112583Y0041264D01*
X0112556Y0041185D01*
X0112525Y0041107D01*
X0112491Y0041031D01*
X0112452Y0040957D01*
X0112411Y0040884D01*
X0112366Y0040813D01*
X0112318Y0040745D01*
X0112266Y0040679D01*
X0112212Y0040615D01*
X0112154Y0040554D01*
X0112094Y0040496D01*
X0112031Y0040441D01*
X0111966Y0040389D01*
X0111898Y0040340D01*
X0111828Y0040294D01*
X0111756Y0040252D01*
X0111682Y0040213D01*
X0111606Y0040177D01*
X0111528Y0040145D01*
X0111450Y0040117D01*
X0111369Y0040093D01*
X0111288Y0040072D01*
X0111206Y0040056D01*
X0111124Y0040043D01*
X0111040Y0040034D01*
X0110957Y0040029D01*
X0110873Y0040028D01*
X0110789Y0040031D01*
X0110706Y0040038D01*
X0110623Y0040049D01*
X0110541Y0040064D01*
X0110459Y0040082D01*
X0110378Y0040105D01*
X0110299Y0040131D01*
X0110221Y0040161D01*
X0110144Y0040195D01*
X0110069Y0040232D01*
X0109996Y0040272D01*
X0109925Y0040317D01*
X0109856Y0040364D01*
X0109789Y0040415D01*
X0109725Y0040468D01*
X0109663Y0040525D01*
X0109605Y0040585D01*
X0109549Y0040647D01*
X0109496Y0040712D01*
X0109446Y0040779D01*
X0109399Y0040848D01*
X0109356Y0040920D01*
X0109316Y0040994D01*
X0109280Y0041069D01*
X0109247Y0041146D01*
X0109218Y0041225D01*
X0109193Y0041304D01*
X0109171Y0041385D01*
X0109154Y0041467D01*
X0109140Y0041550D01*
X0109130Y0041633D01*
X0109124Y0041716D01*
X0109122Y0041800D01*
X0120934Y0041800D02*
X0120936Y0041884D01*
X0120942Y0041967D01*
X0120952Y0042050D01*
X0120966Y0042133D01*
X0120983Y0042215D01*
X0121005Y0042296D01*
X0121030Y0042375D01*
X0121059Y0042454D01*
X0121092Y0042531D01*
X0121128Y0042606D01*
X0121168Y0042680D01*
X0121211Y0042752D01*
X0121258Y0042821D01*
X0121308Y0042888D01*
X0121361Y0042953D01*
X0121417Y0043015D01*
X0121475Y0043075D01*
X0121537Y0043132D01*
X0121601Y0043185D01*
X0121668Y0043236D01*
X0121737Y0043283D01*
X0121808Y0043328D01*
X0121881Y0043368D01*
X0121956Y0043405D01*
X0122033Y0043439D01*
X0122111Y0043469D01*
X0122190Y0043495D01*
X0122271Y0043518D01*
X0122353Y0043536D01*
X0122435Y0043551D01*
X0122518Y0043562D01*
X0122601Y0043569D01*
X0122685Y0043572D01*
X0122769Y0043571D01*
X0122852Y0043566D01*
X0122936Y0043557D01*
X0123018Y0043544D01*
X0123100Y0043528D01*
X0123181Y0043507D01*
X0123262Y0043483D01*
X0123340Y0043455D01*
X0123418Y0043423D01*
X0123494Y0043387D01*
X0123568Y0043348D01*
X0123640Y0043306D01*
X0123710Y0043260D01*
X0123778Y0043211D01*
X0123843Y0043159D01*
X0123906Y0043104D01*
X0123966Y0043046D01*
X0124024Y0042985D01*
X0124078Y0042921D01*
X0124130Y0042855D01*
X0124178Y0042787D01*
X0124223Y0042716D01*
X0124264Y0042643D01*
X0124303Y0042569D01*
X0124337Y0042493D01*
X0124368Y0042415D01*
X0124395Y0042336D01*
X0124419Y0042255D01*
X0124438Y0042174D01*
X0124454Y0042092D01*
X0124466Y0042009D01*
X0124474Y0041925D01*
X0124478Y0041842D01*
X0124478Y0041758D01*
X0124474Y0041675D01*
X0124466Y0041591D01*
X0124454Y0041508D01*
X0124438Y0041426D01*
X0124419Y0041345D01*
X0124395Y0041264D01*
X0124368Y0041185D01*
X0124337Y0041107D01*
X0124303Y0041031D01*
X0124264Y0040957D01*
X0124223Y0040884D01*
X0124178Y0040813D01*
X0124130Y0040745D01*
X0124078Y0040679D01*
X0124024Y0040615D01*
X0123966Y0040554D01*
X0123906Y0040496D01*
X0123843Y0040441D01*
X0123778Y0040389D01*
X0123710Y0040340D01*
X0123640Y0040294D01*
X0123568Y0040252D01*
X0123494Y0040213D01*
X0123418Y0040177D01*
X0123340Y0040145D01*
X0123262Y0040117D01*
X0123181Y0040093D01*
X0123100Y0040072D01*
X0123018Y0040056D01*
X0122936Y0040043D01*
X0122852Y0040034D01*
X0122769Y0040029D01*
X0122685Y0040028D01*
X0122601Y0040031D01*
X0122518Y0040038D01*
X0122435Y0040049D01*
X0122353Y0040064D01*
X0122271Y0040082D01*
X0122190Y0040105D01*
X0122111Y0040131D01*
X0122033Y0040161D01*
X0121956Y0040195D01*
X0121881Y0040232D01*
X0121808Y0040272D01*
X0121737Y0040317D01*
X0121668Y0040364D01*
X0121601Y0040415D01*
X0121537Y0040468D01*
X0121475Y0040525D01*
X0121417Y0040585D01*
X0121361Y0040647D01*
X0121308Y0040712D01*
X0121258Y0040779D01*
X0121211Y0040848D01*
X0121168Y0040920D01*
X0121128Y0040994D01*
X0121092Y0041069D01*
X0121059Y0041146D01*
X0121030Y0041225D01*
X0121005Y0041304D01*
X0120983Y0041385D01*
X0120966Y0041467D01*
X0120952Y0041550D01*
X0120942Y0041633D01*
X0120936Y0041716D01*
X0120934Y0041800D01*
X0085366Y0230486D02*
X0085469Y0230577D01*
X0085574Y0230666D01*
X0085681Y0230751D01*
X0085791Y0230834D01*
X0085903Y0230914D01*
X0086017Y0230990D01*
X0086133Y0231064D01*
X0086251Y0231134D01*
X0086371Y0231201D01*
X0086493Y0231264D01*
X0086617Y0231324D01*
X0086742Y0231381D01*
X0086869Y0231435D01*
X0086997Y0231484D01*
X0087126Y0231531D01*
X0087257Y0231573D01*
X0087388Y0231612D01*
X0087521Y0231648D01*
X0087655Y0231680D01*
X0087789Y0231708D01*
X0087924Y0231732D01*
X0088060Y0231753D01*
X0088197Y0231770D01*
X0088333Y0231783D01*
X0088470Y0231792D01*
X0088608Y0231798D01*
X0088745Y0231800D01*
X0229855Y0231800D02*
X0229992Y0231798D01*
X0230130Y0231792D01*
X0230267Y0231783D01*
X0230403Y0231770D01*
X0230540Y0231753D01*
X0230676Y0231732D01*
X0230811Y0231708D01*
X0230945Y0231680D01*
X0231079Y0231648D01*
X0231212Y0231612D01*
X0231343Y0231573D01*
X0231474Y0231531D01*
X0231603Y0231484D01*
X0231731Y0231435D01*
X0231858Y0231381D01*
X0231983Y0231324D01*
X0232107Y0231264D01*
X0232229Y0231201D01*
X0232349Y0231134D01*
X0232467Y0231064D01*
X0232583Y0230990D01*
X0232697Y0230914D01*
X0232809Y0230834D01*
X0232919Y0230751D01*
X0233026Y0230666D01*
X0233131Y0230577D01*
X0233234Y0230486D01*
D11*
X0214556Y0204812D02*
X0211406Y0204812D01*
X0214556Y0204812D02*
X0214556Y0202450D01*
X0214556Y0196150D02*
X0214556Y0193788D01*
X0211406Y0193788D01*
X0199556Y0194950D02*
X0199556Y0197312D01*
X0196406Y0197312D01*
X0184556Y0192312D02*
X0184556Y0189950D01*
X0184556Y0192312D02*
X0181406Y0192312D01*
X0184556Y0183650D02*
X0184556Y0181288D01*
X0181406Y0181288D01*
X0196406Y0186288D02*
X0199556Y0186288D01*
X0199556Y0188650D01*
X0229692Y0159811D02*
X0238900Y0159811D01*
X0238900Y0156742D02*
X0238900Y0162881D01*
X0232761Y0156742D02*
X0229692Y0159811D01*
X0229692Y0153673D02*
X0237365Y0153673D01*
X0238900Y0152138D01*
X0238900Y0149069D01*
X0237365Y0147534D01*
X0229692Y0147534D01*
X0165637Y0102168D02*
X0165637Y0091432D01*
X0142963Y0091432D01*
X0142963Y0102168D01*
X0165637Y0102168D01*
X0155050Y0098550D02*
X0155050Y0095050D01*
X0153550Y0095050D02*
X0155050Y0096800D01*
X0153550Y0098550D01*
X0153550Y0095050D01*
X0142963Y0087168D02*
X0165637Y0087168D01*
X0165637Y0076432D01*
X0142963Y0076432D01*
X0142963Y0087168D01*
X0153550Y0083550D02*
X0153550Y0080050D01*
X0155050Y0081800D01*
X0153550Y0083550D01*
X0155050Y0083550D02*
X0155050Y0080050D01*
X0164202Y0064517D02*
X0167548Y0064517D01*
X0167548Y0048769D01*
X0164202Y0054674D02*
X0158690Y0054674D01*
X0164202Y0054674D02*
X0164202Y0064517D01*
X0144910Y0054674D02*
X0139398Y0054674D01*
X0139398Y0064517D01*
X0136052Y0064517D01*
X0136052Y0048769D01*
X0130186Y0043375D02*
X0130186Y0040225D01*
X0128217Y0036682D02*
X0105383Y0036682D01*
X0103414Y0040225D02*
X0103414Y0043375D01*
X0110107Y0046918D02*
X0117194Y0046918D01*
X0113306Y0055501D02*
X0107794Y0055501D01*
X0107794Y0068099D01*
X0113306Y0068099D01*
X0113306Y0055501D01*
X0104349Y0057056D02*
X0104349Y0051544D01*
X0091751Y0051544D01*
X0091751Y0057056D01*
X0104349Y0057056D01*
X0101800Y0061800D02*
X0101800Y0066800D01*
X0099300Y0069300D01*
X0101800Y0071800D01*
X0101800Y0076800D01*
X0099300Y0079300D01*
X0101800Y0081800D01*
X0101800Y0086800D01*
X0099300Y0089300D01*
X0101800Y0091800D01*
X0101800Y0096800D01*
X0099300Y0099300D01*
X0094300Y0099300D01*
X0091800Y0096800D01*
X0091800Y0091800D01*
X0094300Y0089300D01*
X0091800Y0086800D01*
X0091800Y0081800D01*
X0094300Y0079300D01*
X0091800Y0076800D01*
X0091800Y0071800D01*
X0094300Y0069300D01*
X0091800Y0066800D01*
X0091800Y0061800D01*
X0094300Y0059300D01*
X0099300Y0059300D01*
X0101800Y0061800D01*
X0111091Y0076150D02*
X0111091Y0082450D01*
X0115028Y0082450D02*
X0118572Y0082450D01*
X0122509Y0082450D02*
X0122509Y0076150D01*
X0142942Y0034989D02*
X0160658Y0034989D01*
X0137194Y0181288D02*
X0134044Y0181288D01*
X0134044Y0183650D01*
X0134044Y0189950D02*
X0134044Y0192312D01*
X0137194Y0192312D01*
X0122194Y0197312D02*
X0119044Y0197312D01*
X0119044Y0194950D01*
X0119044Y0188650D02*
X0119044Y0186288D01*
X0122194Y0186288D01*
X0107194Y0191288D02*
X0104044Y0191288D01*
X0104044Y0193650D01*
X0104044Y0199950D02*
X0104044Y0202312D01*
X0107194Y0202312D01*
D12*
X0058938Y0052334D02*
X0059372Y0051900D01*
X0060239Y0051900D01*
X0060673Y0052334D01*
X0060673Y0053201D01*
X0059806Y0053201D01*
X0060673Y0054069D02*
X0060239Y0054502D01*
X0059372Y0054502D01*
X0058938Y0054069D01*
X0058938Y0052334D01*
X0061885Y0052334D02*
X0062319Y0051900D01*
X0063186Y0051900D01*
X0063620Y0052334D01*
X0063620Y0052767D01*
X0063186Y0053201D01*
X0062319Y0053201D01*
X0061885Y0053635D01*
X0061885Y0054069D01*
X0062319Y0054502D01*
X0063186Y0054502D01*
X0063620Y0054069D01*
X0064831Y0054502D02*
X0064831Y0051900D01*
X0064831Y0052767D02*
X0066132Y0052767D01*
X0066566Y0053201D01*
X0066566Y0054069D01*
X0066132Y0054502D01*
X0064831Y0054502D01*
X0065699Y0052767D02*
X0066566Y0051900D01*
X0067778Y0051466D02*
X0069513Y0051466D01*
X0070724Y0052334D02*
X0071158Y0051900D01*
X0072025Y0051900D01*
X0072459Y0052334D01*
X0072459Y0054069D01*
X0072025Y0054502D01*
X0071158Y0054502D01*
X0070724Y0054069D01*
X0070724Y0052334D01*
X0073671Y0052334D02*
X0073671Y0054502D01*
X0075406Y0054502D02*
X0075406Y0052334D01*
X0074972Y0051900D01*
X0074105Y0051900D01*
X0073671Y0052334D01*
X0076617Y0054502D02*
X0078352Y0054502D01*
X0077485Y0054502D02*
X0077485Y0051900D01*
X0079564Y0051466D02*
X0081299Y0051466D01*
X0082510Y0052334D02*
X0082944Y0051900D01*
X0083812Y0051900D01*
X0084245Y0052334D01*
X0085457Y0051900D02*
X0085457Y0053635D01*
X0086324Y0054502D01*
X0087192Y0053635D01*
X0087192Y0051900D01*
X0088403Y0051900D02*
X0088403Y0054502D01*
X0089705Y0054502D01*
X0090138Y0054069D01*
X0090138Y0053201D01*
X0089705Y0052767D01*
X0088403Y0052767D01*
X0087192Y0053201D02*
X0085457Y0053201D01*
X0084245Y0054069D02*
X0083812Y0054502D01*
X0082944Y0054502D01*
X0082510Y0054069D01*
X0082510Y0052334D01*
X0100565Y0052832D02*
X0101866Y0052832D01*
X0102299Y0053266D01*
X0102299Y0055001D01*
X0101866Y0055434D01*
X0100565Y0055434D01*
X0100565Y0052832D01*
X0103511Y0052832D02*
X0103511Y0055434D01*
X0105246Y0055434D01*
X0106458Y0055434D02*
X0107759Y0055434D01*
X0108192Y0055001D01*
X0108192Y0054567D01*
X0107759Y0054133D01*
X0106458Y0054133D01*
X0106458Y0052832D02*
X0107759Y0052832D01*
X0108192Y0053266D01*
X0108192Y0053700D01*
X0107759Y0054133D01*
X0106458Y0052832D02*
X0106458Y0055434D01*
X0104378Y0054133D02*
X0103511Y0054133D01*
X0103511Y0052832D02*
X0105246Y0052832D01*
X0109404Y0053266D02*
X0109404Y0055434D01*
X0111139Y0055434D02*
X0111139Y0053266D01*
X0110705Y0052832D01*
X0109838Y0052832D01*
X0109404Y0053266D01*
X0112351Y0053266D02*
X0112351Y0055001D01*
X0112784Y0055434D01*
X0113652Y0055434D01*
X0114085Y0055001D01*
X0114085Y0054133D02*
X0113218Y0054133D01*
X0114085Y0054133D02*
X0114085Y0053266D01*
X0113652Y0052832D01*
X0112784Y0052832D01*
X0112351Y0053266D01*
X0115297Y0052399D02*
X0117032Y0052399D01*
X0118244Y0053266D02*
X0118677Y0052832D01*
X0119545Y0052832D01*
X0119978Y0053266D01*
X0119978Y0053700D01*
X0119545Y0054133D01*
X0118677Y0054133D01*
X0118244Y0054567D01*
X0118244Y0055001D01*
X0118677Y0055434D01*
X0119545Y0055434D01*
X0119978Y0055001D01*
X0121190Y0055434D02*
X0121190Y0052832D01*
X0122058Y0053700D01*
X0122925Y0052832D01*
X0122925Y0055434D01*
X0124137Y0055434D02*
X0125004Y0055434D01*
X0124570Y0055434D02*
X0124570Y0052832D01*
X0124137Y0052832D02*
X0125004Y0052832D01*
X0126968Y0052832D02*
X0126968Y0055434D01*
X0126101Y0055434D02*
X0127836Y0055434D01*
X0129048Y0055001D02*
X0129048Y0053266D01*
X0129481Y0052832D01*
X0130349Y0052832D01*
X0130782Y0053266D01*
X0131994Y0052832D02*
X0131994Y0055434D01*
X0130782Y0055001D02*
X0130349Y0055434D01*
X0129481Y0055434D01*
X0129048Y0055001D01*
X0131994Y0054133D02*
X0133729Y0054133D01*
X0133729Y0055434D02*
X0133729Y0052832D01*
X0146117Y0038752D02*
X0147419Y0038752D01*
X0147852Y0038319D01*
X0147852Y0037451D01*
X0147419Y0037017D01*
X0146117Y0037017D01*
X0146117Y0036150D02*
X0146117Y0038752D01*
X0149064Y0038319D02*
X0149064Y0036584D01*
X0149498Y0036150D01*
X0150365Y0036150D01*
X0150799Y0036584D01*
X0150799Y0038319D01*
X0150365Y0038752D01*
X0149498Y0038752D01*
X0149064Y0038319D01*
X0152010Y0038752D02*
X0152010Y0036150D01*
X0152878Y0037017D01*
X0153745Y0036150D01*
X0153745Y0038752D01*
X0154957Y0038752D02*
X0154957Y0036150D01*
X0156692Y0036150D01*
X0157903Y0036150D02*
X0157903Y0038752D01*
X0159205Y0038752D01*
X0159638Y0038319D01*
X0159638Y0037451D01*
X0159205Y0037017D01*
X0157903Y0037017D01*
X0158771Y0037017D02*
X0159638Y0036150D01*
X0156692Y0038752D02*
X0154957Y0038752D01*
X0154957Y0037451D02*
X0155824Y0037451D01*
X0110750Y0069534D02*
X0110750Y0070401D01*
X0110316Y0070835D01*
X0109449Y0070835D01*
X0109449Y0069967D01*
X0108581Y0069100D02*
X0110316Y0069100D01*
X0110750Y0069534D01*
X0108581Y0069100D02*
X0108148Y0069534D01*
X0108148Y0070401D01*
X0108581Y0070835D01*
X0108581Y0072047D02*
X0109015Y0072047D01*
X0109449Y0072480D01*
X0109449Y0073348D01*
X0109883Y0073781D01*
X0110316Y0073781D01*
X0110750Y0073348D01*
X0110750Y0072480D01*
X0110316Y0072047D01*
X0108581Y0072047D02*
X0108148Y0072480D01*
X0108148Y0073348D01*
X0108581Y0073781D01*
X0108148Y0074993D02*
X0108148Y0076294D01*
X0108581Y0076728D01*
X0109449Y0076728D01*
X0109883Y0076294D01*
X0109883Y0074993D01*
X0110750Y0074993D02*
X0108148Y0074993D01*
X0109883Y0075860D02*
X0110750Y0076728D01*
X0111184Y0077940D02*
X0111184Y0079674D01*
X0110750Y0080886D02*
X0110750Y0081753D01*
X0110750Y0081320D02*
X0108148Y0081320D01*
X0108148Y0081753D02*
X0108148Y0080886D01*
X0108148Y0082850D02*
X0110750Y0084585D01*
X0108148Y0084585D01*
X0108148Y0082850D02*
X0110750Y0082850D01*
X0111184Y0085797D02*
X0111184Y0087532D01*
X0110316Y0088743D02*
X0108581Y0088743D01*
X0108148Y0089177D01*
X0108148Y0090045D01*
X0108581Y0090478D01*
X0109015Y0091690D02*
X0108148Y0092557D01*
X0109015Y0093425D01*
X0110750Y0093425D01*
X0110750Y0094636D02*
X0108148Y0094636D01*
X0108148Y0095938D01*
X0108581Y0096371D01*
X0109449Y0096371D01*
X0109883Y0095938D01*
X0109883Y0094636D01*
X0109449Y0093425D02*
X0109449Y0091690D01*
X0109015Y0091690D02*
X0110750Y0091690D01*
X0110316Y0090478D02*
X0110750Y0090045D01*
X0110750Y0089177D01*
X0110316Y0088743D01*
X0124100Y0082202D02*
X0124100Y0080034D01*
X0124534Y0079600D01*
X0125401Y0079600D01*
X0125835Y0080034D01*
X0125835Y0082202D01*
X0127047Y0081769D02*
X0127480Y0082202D01*
X0128348Y0082202D01*
X0128781Y0081769D01*
X0128781Y0081335D01*
X0127047Y0079600D01*
X0128781Y0079600D01*
X0166923Y0082333D02*
X0167357Y0081899D01*
X0168224Y0081899D01*
X0168658Y0082333D01*
X0169869Y0081899D02*
X0171604Y0081899D01*
X0170737Y0081899D02*
X0170737Y0084501D01*
X0169869Y0083634D01*
X0168658Y0084068D02*
X0168224Y0084501D01*
X0167357Y0084501D01*
X0166923Y0084068D01*
X0166923Y0082333D01*
X0167357Y0096899D02*
X0168224Y0096899D01*
X0168658Y0097333D01*
X0169869Y0097333D02*
X0170303Y0096899D01*
X0171170Y0096899D01*
X0171604Y0097333D01*
X0171604Y0097767D01*
X0171170Y0098200D01*
X0170737Y0098200D01*
X0171170Y0098200D02*
X0171604Y0098634D01*
X0171604Y0099068D01*
X0171170Y0099501D01*
X0170303Y0099501D01*
X0169869Y0099068D01*
X0168658Y0099068D02*
X0168224Y0099501D01*
X0167357Y0099501D01*
X0166923Y0099068D01*
X0166923Y0097333D01*
X0167357Y0096899D01*
X0181100Y0220800D02*
X0182350Y0221800D01*
X0181100Y0222800D01*
X0181100Y0220800D01*
X0181100Y0221141D02*
X0181527Y0221141D01*
X0181100Y0221740D02*
X0182275Y0221740D01*
X0181677Y0222339D02*
X0181100Y0222339D01*
X0181781Y0225100D02*
X0180047Y0225100D01*
X0180047Y0227702D01*
X0181781Y0227702D01*
X0182993Y0227702D02*
X0184294Y0227702D01*
X0184728Y0227269D01*
X0184728Y0225534D01*
X0184294Y0225100D01*
X0182993Y0225100D01*
X0182993Y0227702D01*
X0180914Y0226401D02*
X0180047Y0226401D01*
X0178835Y0225100D02*
X0177100Y0225100D01*
X0177100Y0227702D01*
X0185940Y0226401D02*
X0187674Y0226401D01*
X0187241Y0225100D02*
X0187241Y0227702D01*
X0185940Y0226401D01*
X0192100Y0225100D02*
X0193835Y0225100D01*
X0195047Y0225100D02*
X0196781Y0225100D01*
X0197993Y0225100D02*
X0197993Y0227702D01*
X0199294Y0227702D01*
X0199728Y0227269D01*
X0199728Y0225534D01*
X0199294Y0225100D01*
X0197993Y0225100D01*
X0195914Y0226401D02*
X0195047Y0226401D01*
X0195047Y0227702D02*
X0195047Y0225100D01*
X0196100Y0222800D02*
X0196100Y0220800D01*
X0197350Y0221800D01*
X0196100Y0222800D01*
X0196100Y0222339D02*
X0196677Y0222339D01*
X0196100Y0221740D02*
X0197275Y0221740D01*
X0196527Y0221141D02*
X0196100Y0221141D01*
X0192100Y0225100D02*
X0192100Y0227702D01*
X0195047Y0227702D02*
X0196781Y0227702D01*
X0200940Y0227702D02*
X0200940Y0226401D01*
X0201807Y0226835D01*
X0202241Y0226835D01*
X0202674Y0226401D01*
X0202674Y0225534D01*
X0202241Y0225100D01*
X0201373Y0225100D01*
X0200940Y0225534D01*
X0200940Y0227702D02*
X0202674Y0227702D01*
X0207100Y0227702D02*
X0207100Y0225100D01*
X0208835Y0225100D01*
X0210047Y0225100D02*
X0211781Y0225100D01*
X0212993Y0225100D02*
X0214294Y0225100D01*
X0214728Y0225534D01*
X0214728Y0227269D01*
X0214294Y0227702D01*
X0212993Y0227702D01*
X0212993Y0225100D01*
X0210914Y0226401D02*
X0210047Y0226401D01*
X0210047Y0227702D02*
X0210047Y0225100D01*
X0211100Y0222800D02*
X0211100Y0220800D01*
X0212350Y0221800D01*
X0211100Y0222800D01*
X0211100Y0222339D02*
X0211677Y0222339D01*
X0211100Y0221740D02*
X0212275Y0221740D01*
X0211527Y0221141D02*
X0211100Y0221141D01*
X0215940Y0225534D02*
X0216373Y0225100D01*
X0217241Y0225100D01*
X0217674Y0225534D01*
X0217674Y0225967D01*
X0217241Y0226401D01*
X0215940Y0226401D01*
X0215940Y0225534D01*
X0215940Y0226401D02*
X0216807Y0227269D01*
X0217674Y0227702D01*
X0211781Y0227702D02*
X0210047Y0227702D01*
X0142674Y0227269D02*
X0142674Y0226835D01*
X0142241Y0226401D01*
X0142674Y0225967D01*
X0142674Y0225534D01*
X0142241Y0225100D01*
X0141373Y0225100D01*
X0140940Y0225534D01*
X0139728Y0225534D02*
X0139728Y0227269D01*
X0139294Y0227702D01*
X0137993Y0227702D01*
X0137993Y0225100D01*
X0139294Y0225100D01*
X0139728Y0225534D01*
X0140940Y0227269D02*
X0141373Y0227702D01*
X0142241Y0227702D01*
X0142674Y0227269D01*
X0142241Y0226401D02*
X0141807Y0226401D01*
X0136781Y0225100D02*
X0135047Y0225100D01*
X0135047Y0227702D01*
X0136781Y0227702D01*
X0135914Y0226401D02*
X0135047Y0226401D01*
X0133835Y0225100D02*
X0132100Y0225100D01*
X0132100Y0227702D01*
X0127674Y0227269D02*
X0127241Y0227702D01*
X0126373Y0227702D01*
X0125940Y0227269D01*
X0124728Y0227269D02*
X0124294Y0227702D01*
X0122993Y0227702D01*
X0122993Y0225100D01*
X0124294Y0225100D01*
X0124728Y0225534D01*
X0124728Y0227269D01*
X0125940Y0225100D02*
X0127674Y0226835D01*
X0127674Y0227269D01*
X0127674Y0225100D02*
X0125940Y0225100D01*
X0121781Y0225100D02*
X0120047Y0225100D01*
X0120047Y0227702D01*
X0121781Y0227702D01*
X0120914Y0226401D02*
X0120047Y0226401D01*
X0118835Y0225100D02*
X0117100Y0225100D01*
X0117100Y0227702D01*
X0112674Y0225100D02*
X0110940Y0225100D01*
X0111807Y0225100D02*
X0111807Y0227702D01*
X0110940Y0226835D01*
X0109728Y0227269D02*
X0109294Y0227702D01*
X0107993Y0227702D01*
X0107993Y0225100D01*
X0109294Y0225100D01*
X0109728Y0225534D01*
X0109728Y0227269D01*
X0106781Y0227702D02*
X0105047Y0227702D01*
X0105047Y0225100D01*
X0106781Y0225100D01*
X0105914Y0226401D02*
X0105047Y0226401D01*
X0103835Y0225100D02*
X0102100Y0225100D01*
X0102100Y0227702D01*
X0106100Y0222800D02*
X0106100Y0220800D01*
X0107350Y0221800D01*
X0106100Y0222800D01*
X0106100Y0222339D02*
X0106677Y0222339D01*
X0106100Y0221740D02*
X0107275Y0221740D01*
X0106527Y0221141D02*
X0106100Y0221141D01*
X0121100Y0221141D02*
X0121527Y0221141D01*
X0121100Y0220800D02*
X0122350Y0221800D01*
X0121100Y0222800D01*
X0121100Y0220800D01*
X0121100Y0221740D02*
X0122275Y0221740D01*
X0121677Y0222339D02*
X0121100Y0222339D01*
X0136100Y0222339D02*
X0136677Y0222339D01*
X0136100Y0222800D02*
X0136100Y0220800D01*
X0137350Y0221800D01*
X0136100Y0222800D01*
X0136100Y0221740D02*
X0137275Y0221740D01*
X0136527Y0221141D02*
X0136100Y0221141D01*
D13*
X0135574Y0218851D02*
X0135824Y0218601D01*
X0135824Y0218351D01*
X0135574Y0218101D01*
X0135824Y0217850D01*
X0135824Y0217600D01*
X0135574Y0217350D01*
X0135073Y0217350D01*
X0134823Y0217600D01*
X0134351Y0217350D02*
X0133850Y0217850D01*
X0134101Y0217850D02*
X0133350Y0217850D01*
X0133350Y0217350D02*
X0133350Y0218851D01*
X0134101Y0218851D01*
X0134351Y0218601D01*
X0134351Y0218101D01*
X0134101Y0217850D01*
X0134823Y0218601D02*
X0135073Y0218851D01*
X0135574Y0218851D01*
X0135574Y0218101D02*
X0135324Y0218101D01*
X0120824Y0218351D02*
X0120824Y0218601D01*
X0120574Y0218851D01*
X0120073Y0218851D01*
X0119823Y0218601D01*
X0119351Y0218601D02*
X0119351Y0218101D01*
X0119101Y0217850D01*
X0118350Y0217850D01*
X0118350Y0217350D02*
X0118350Y0218851D01*
X0119101Y0218851D01*
X0119351Y0218601D01*
X0118850Y0217850D02*
X0119351Y0217350D01*
X0119823Y0217350D02*
X0120824Y0218351D01*
X0120824Y0217350D02*
X0119823Y0217350D01*
X0105824Y0217350D02*
X0104823Y0217350D01*
X0104351Y0217350D02*
X0103850Y0217850D01*
X0104101Y0217850D02*
X0103350Y0217850D01*
X0103350Y0217350D02*
X0103350Y0218851D01*
X0104101Y0218851D01*
X0104351Y0218601D01*
X0104351Y0218101D01*
X0104101Y0217850D01*
X0104823Y0218351D02*
X0105324Y0218851D01*
X0105324Y0217350D01*
X0099750Y0199021D02*
X0099750Y0198020D01*
X0099750Y0198520D02*
X0098249Y0198520D01*
X0098749Y0198020D01*
X0098249Y0197547D02*
X0098249Y0196547D01*
X0098249Y0196074D02*
X0098249Y0195073D01*
X0099750Y0195073D01*
X0099750Y0196074D01*
X0098999Y0195574D02*
X0098999Y0195073D01*
X0098249Y0194601D02*
X0098249Y0193600D01*
X0099750Y0193600D01*
X0098999Y0193600D02*
X0098999Y0194100D01*
X0098249Y0197047D02*
X0099750Y0197047D01*
X0113249Y0193770D02*
X0113249Y0193270D01*
X0113499Y0193020D01*
X0113249Y0192547D02*
X0113249Y0191547D01*
X0113249Y0191074D02*
X0113249Y0190073D01*
X0114750Y0190073D01*
X0114750Y0191074D01*
X0113999Y0190574D02*
X0113999Y0190073D01*
X0113249Y0189601D02*
X0113249Y0188600D01*
X0114750Y0188600D01*
X0113999Y0188600D02*
X0113999Y0189100D01*
X0113249Y0192047D02*
X0114750Y0192047D01*
X0114750Y0193020D02*
X0113749Y0194021D01*
X0113499Y0194021D01*
X0113249Y0193770D01*
X0114750Y0194021D02*
X0114750Y0193020D01*
X0128249Y0188770D02*
X0128499Y0189021D01*
X0128749Y0189021D01*
X0128999Y0188770D01*
X0129250Y0189021D01*
X0129500Y0189021D01*
X0129750Y0188770D01*
X0129750Y0188270D01*
X0129500Y0188020D01*
X0128999Y0188520D02*
X0128999Y0188770D01*
X0128249Y0188770D02*
X0128249Y0188270D01*
X0128499Y0188020D01*
X0128249Y0187547D02*
X0128249Y0186547D01*
X0128249Y0186074D02*
X0128249Y0185073D01*
X0129750Y0185073D01*
X0129750Y0186074D01*
X0128999Y0185574D02*
X0128999Y0185073D01*
X0128249Y0184601D02*
X0128249Y0183600D01*
X0129750Y0183600D01*
X0128999Y0183600D02*
X0128999Y0184100D01*
X0128249Y0187047D02*
X0129750Y0187047D01*
X0178350Y0217350D02*
X0178350Y0218851D01*
X0179101Y0218851D01*
X0179351Y0218601D01*
X0179351Y0218101D01*
X0179101Y0217850D01*
X0178350Y0217850D01*
X0178850Y0217850D02*
X0179351Y0217350D01*
X0179823Y0218101D02*
X0180824Y0218101D01*
X0180574Y0218851D02*
X0179823Y0218101D01*
X0180574Y0218851D02*
X0180574Y0217350D01*
X0193350Y0217350D02*
X0193350Y0218851D01*
X0194101Y0218851D01*
X0194351Y0218601D01*
X0194351Y0218101D01*
X0194101Y0217850D01*
X0193350Y0217850D01*
X0193850Y0217850D02*
X0194351Y0217350D01*
X0194823Y0217600D02*
X0195073Y0217350D01*
X0195574Y0217350D01*
X0195824Y0217600D01*
X0195824Y0218101D01*
X0195574Y0218351D01*
X0195324Y0218351D01*
X0194823Y0218101D01*
X0194823Y0218851D01*
X0195824Y0218851D01*
X0208350Y0218851D02*
X0209101Y0218851D01*
X0209351Y0218601D01*
X0209351Y0218101D01*
X0209101Y0217850D01*
X0208350Y0217850D01*
X0208350Y0217350D02*
X0208350Y0218851D01*
X0208850Y0217850D02*
X0209351Y0217350D01*
X0209823Y0217600D02*
X0210073Y0217350D01*
X0210574Y0217350D01*
X0210824Y0217600D01*
X0210824Y0217850D01*
X0210574Y0218101D01*
X0209823Y0218101D01*
X0209823Y0217600D01*
X0209823Y0218101D02*
X0210324Y0218601D01*
X0210824Y0218851D01*
X0218849Y0202128D02*
X0219099Y0201627D01*
X0219599Y0201127D01*
X0219599Y0201877D01*
X0219850Y0202128D01*
X0220100Y0202128D01*
X0220350Y0201877D01*
X0220350Y0201377D01*
X0220100Y0201127D01*
X0219599Y0201127D01*
X0218849Y0200654D02*
X0218849Y0199653D01*
X0218849Y0199181D02*
X0218849Y0198180D01*
X0220350Y0198180D01*
X0220350Y0199181D01*
X0219599Y0198681D02*
X0219599Y0198180D01*
X0218849Y0197708D02*
X0218849Y0196707D01*
X0220350Y0196707D01*
X0219599Y0196707D02*
X0219599Y0197207D01*
X0218849Y0200154D02*
X0220350Y0200154D01*
X0205350Y0194377D02*
X0205350Y0193877D01*
X0205100Y0193627D01*
X0204599Y0193627D02*
X0204349Y0194127D01*
X0204349Y0194377D01*
X0204599Y0194628D01*
X0205100Y0194628D01*
X0205350Y0194377D01*
X0204599Y0193627D02*
X0203849Y0193627D01*
X0203849Y0194628D01*
X0203849Y0193154D02*
X0203849Y0192153D01*
X0203849Y0191681D02*
X0203849Y0190680D01*
X0205350Y0190680D01*
X0205350Y0191681D01*
X0204599Y0191181D02*
X0204599Y0190680D01*
X0203849Y0190208D02*
X0203849Y0189207D01*
X0205350Y0189207D01*
X0204599Y0189207D02*
X0204599Y0189707D01*
X0203849Y0192654D02*
X0205350Y0192654D01*
X0190350Y0189377D02*
X0188849Y0189377D01*
X0189599Y0188627D01*
X0189599Y0189628D01*
X0188849Y0188154D02*
X0188849Y0187153D01*
X0188849Y0186681D02*
X0188849Y0185680D01*
X0190350Y0185680D01*
X0190350Y0186681D01*
X0189599Y0186181D02*
X0189599Y0185680D01*
X0188849Y0185208D02*
X0188849Y0184207D01*
X0190350Y0184207D01*
X0189599Y0184207D02*
X0189599Y0184707D01*
X0188849Y0187654D02*
X0190350Y0187654D01*
X0113500Y0095824D02*
X0113250Y0095824D01*
X0112999Y0095574D01*
X0112999Y0095073D01*
X0112749Y0094823D01*
X0112499Y0094823D01*
X0112249Y0095073D01*
X0112249Y0095574D01*
X0112499Y0095824D01*
X0112749Y0095824D01*
X0112999Y0095574D01*
X0112999Y0095073D02*
X0113250Y0094823D01*
X0113500Y0094823D01*
X0113750Y0095073D01*
X0113750Y0095574D01*
X0113500Y0095824D01*
X0113750Y0094351D02*
X0113250Y0093850D01*
X0113250Y0094101D02*
X0113250Y0093350D01*
X0113750Y0093350D02*
X0112249Y0093350D01*
X0112249Y0094101D01*
X0112499Y0094351D01*
X0112999Y0094351D01*
X0113250Y0094101D01*
X0106250Y0094351D02*
X0105750Y0093850D01*
X0105750Y0094101D02*
X0105750Y0093350D01*
X0106250Y0093350D02*
X0104749Y0093350D01*
X0104749Y0094101D01*
X0104999Y0094351D01*
X0105499Y0094351D01*
X0105750Y0094101D01*
X0106000Y0094823D02*
X0106250Y0094823D01*
X0106000Y0094823D02*
X0104999Y0095824D01*
X0104749Y0095824D01*
X0104749Y0094823D01*
D14*
X0107600Y0221800D03*
X0122600Y0221800D03*
X0137600Y0221800D03*
X0182600Y0221800D03*
X0197600Y0221800D03*
X0212600Y0221800D03*
D15*
X0219300Y0175550D02*
X0219300Y0105550D01*
X0099300Y0105550D01*
X0099300Y0175550D01*
X0219300Y0175550D01*
X0229044Y0089044D02*
X0181800Y0089044D01*
X0181800Y0041800D01*
X0229044Y0041800D01*
X0229044Y0089044D01*
X0089350Y0071460D02*
X0087849Y0069959D01*
X0087849Y0070710D02*
X0087849Y0068458D01*
X0089350Y0068458D02*
X0084846Y0068458D01*
X0084846Y0070710D01*
X0085597Y0071460D01*
X0087098Y0071460D01*
X0087849Y0070710D01*
X0087849Y0066856D02*
X0088599Y0066856D01*
X0089350Y0066106D01*
X0089350Y0064605D01*
X0088599Y0063854D01*
X0088599Y0062253D02*
X0087098Y0062253D01*
X0087098Y0060751D01*
X0085597Y0059250D02*
X0088599Y0059250D01*
X0089350Y0060001D01*
X0089350Y0061502D01*
X0088599Y0062253D01*
X0086347Y0063854D02*
X0087098Y0064605D01*
X0087098Y0066106D01*
X0087849Y0066856D01*
X0085597Y0066856D02*
X0084846Y0066106D01*
X0084846Y0064605D01*
X0085597Y0063854D01*
X0086347Y0063854D01*
X0085597Y0062253D02*
X0084846Y0061502D01*
X0084846Y0060001D01*
X0085597Y0059250D01*
D16*
X0192000Y0097000D02*
X0192000Y0101604D01*
X0194302Y0101604D01*
X0195069Y0100837D01*
X0195069Y0099302D01*
X0194302Y0098535D01*
X0192000Y0098535D01*
X0196604Y0097767D02*
X0197371Y0097000D01*
X0198906Y0097000D01*
X0199673Y0097767D01*
X0199673Y0100837D01*
X0198906Y0101604D01*
X0197371Y0101604D01*
X0196604Y0100837D01*
X0196604Y0097767D01*
X0201208Y0097000D02*
X0201208Y0101604D01*
X0204277Y0101604D02*
X0204277Y0097000D01*
X0202742Y0098535D01*
X0201208Y0097000D01*
X0205812Y0097000D02*
X0208881Y0097000D01*
X0210416Y0097000D02*
X0210416Y0101604D01*
X0212718Y0101604D01*
X0213485Y0100837D01*
X0213485Y0099302D01*
X0212718Y0098535D01*
X0210416Y0098535D01*
X0211950Y0098535D02*
X0213485Y0097000D01*
X0215020Y0096233D02*
X0218089Y0096233D01*
X0219624Y0097767D02*
X0220391Y0097000D01*
X0221926Y0097000D01*
X0222693Y0097767D01*
X0222693Y0098535D01*
X0221926Y0099302D01*
X0220391Y0099302D01*
X0219624Y0100069D01*
X0219624Y0100837D01*
X0220391Y0101604D01*
X0221926Y0101604D01*
X0222693Y0100837D01*
X0224227Y0101604D02*
X0224227Y0097000D01*
X0225762Y0098535D01*
X0227297Y0097000D01*
X0227297Y0101604D01*
X0228831Y0101604D02*
X0230366Y0101604D01*
X0229599Y0101604D02*
X0229599Y0097000D01*
X0230366Y0097000D02*
X0228831Y0097000D01*
X0233435Y0097000D02*
X0233435Y0101604D01*
X0231901Y0101604D02*
X0234970Y0101604D01*
X0236505Y0100837D02*
X0236505Y0097767D01*
X0237272Y0097000D01*
X0238807Y0097000D01*
X0239574Y0097767D01*
X0241109Y0097000D02*
X0241109Y0101604D01*
X0239574Y0100837D02*
X0238807Y0101604D01*
X0237272Y0101604D01*
X0236505Y0100837D01*
X0241109Y0099302D02*
X0244178Y0099302D01*
X0244178Y0101604D02*
X0244178Y0097000D01*
X0208881Y0101604D02*
X0205812Y0101604D01*
X0205812Y0097000D01*
X0205812Y0099302D02*
X0207346Y0099302D01*
D17*
X0211800Y0214300D03*
X0196800Y0214300D03*
X0181800Y0214300D03*
X0136800Y0214300D03*
X0121800Y0214300D03*
X0106800Y0214300D03*
M02*
